<?xml version="1.0" encoding="UTF-8"?>
<svg width="100" height="100" viewBox="0 0 48 48" xmlns="http://www.w3.org/2000/svg">
<path d="M17.204 19.122l-4.907 2.715C12.113 21.938 12 22.126 12 22.329v5.433c0 .203.113.39.297.492l4.908 2.717c.183.101.41.101.593 0l4.907-2.717C22.887 28.152 23 27.965 23 27.762v-5.433c0-.203-.113-.39-.297-.492l-4.906-2.715c-.092-.051-.195-.076-.297-.076-.103 0-.205.025-.297.076M42.451 24.013l-.818.452c-.031.017-.049.048-.049.082v.906c0 .034.019.065.049.082l.818.453c.031.017.068.017.099 0l.818-.453c.03-.017.049-.048.049-.082v-.906c0-.034-.019-.065-.05-.082l-.818-.452C42.534 24.004 42.517 24 42.5 24S42.466 24.004 42.451 24.013" fill="#388e3c"/>
<path d="m35.751 13.364-2.389-1.333c-0.075-0.042-0.167-0.041-0.241 3e-3s-0.12 0.123-0.12 0.209l-1e-3 8.052-2.203-1.219c-0.092-0.051-0.195-0.076-0.297-0.076s-0.205 0.025-0.297 0.076h1e-3l-4.907 2.715c-0.184 0.101-0.297 0.289-0.297 0.491v5.433c0 0.203 0.113 0.39 0.297 0.492l4.908 2.717c0.183 0.101 0.41 0.101 0.593 0l4.907-2.717c0.182-0.101 0.295-0.289 0.295-0.492v-13.927c0-0.176-0.096-0.338-0.249-0.424zm-2.885 13.094-2.23 1.235c-0.083 0.046-0.186 0.046-0.269 0l-2.231-1.235c-0.085-0.046-0.136-0.132-0.136-0.224v-2.47c0-0.092 0.051-0.177 0.135-0.224l2.231-1.234h-1e-3c0.042-0.023 0.088-0.034 0.135-0.034s0.093 0.012 0.135 0.034l2.23 1.234c0.084 0.047 0.135 0.133 0.135 0.225v2.47c0 0.091-0.051 0.177-0.134 0.223z" fill="#37474f"/>
<path d="m17.204 19.122-5.204 8.64c0 0.203 0.113 0.39 0.297 0.492l4.908 2.717c0.183 0.101 0.41 0.101 0.593 0l5.202-8.642c0-0.203-0.113-0.39-0.297-0.492l-4.906-2.715c-0.092-0.051-0.195-0.076-0.297-0.076-0.103 0-0.205 0.025-0.297 0.076" fill="#2e7d32"/>
<path d="M17.204,19.122l-4.907,2.715C12.113,21.938,12,22.126,12,22.329l5.204,8.642 c0.183,0.101,0.41,0.101,0.593,0l4.907-2.717C22.887,28.152,23,27.965,23,27.762l-5.203-8.64c-0.092-0.051-0.195-0.076-0.297-0.076 c-0.103,0-0.205,0.025-0.297,0.076" fill="#4caf50"/>
<path d="M47.703 21.791l-4.906-2.715C42.705 19.025 42.602 19 42.5 19c-.102 0-.205.025-.297.076h.001l-4.907 2.715C37.114 21.892 37 22.084 37 22.294v5.411c0 .209.114.402.297.503l4.908 2.717c.184.102.409.102.593 0l2.263-1.253c.207-.115.206-.412-.002-.526l-4.924-2.687C40.052 26.412 40 26.325 40 26.231v-2.466c0-.092.05-.177.13-.221l2.235-1.236h-.001c.042-.023.088-.034.135-.034.047 0 .093.012.135.034l2.235 1.237c.08.044.13.129.13.221v2.012c0 .086.046.166.121.209.075.042.167.042.242-.001l2.398-1.393c.148-.086.24-.245.24-.417v-1.88C48 22.085 47.886 21.892 47.703 21.791zM10.703 21.791l-4.906-2.715C5.705 19.025 5.602 19 5.5 19c-.102 0-.205.025-.297.076h.001l-4.907 2.715C.114 21.892 0 22.084 0 22.294v7.465c0 .086.046.166.121.209.075.042.167.042.242-.001l2.398-1.393C2.909 28.488 3 28.329 3 28.157v-4.393c0-.092.05-.177.13-.221l2.235-1.236H5.365c.042-.023.088-.034.135-.034.047 0 .093.012.135.034l2.235 1.237C7.95 23.588 8 23.673 8 23.765v4.393c0 .172.091.331.24.417l2.398 1.393c.075.043.167.043.242.001C10.954 29.925 11 29.845 11 29.759v-7.464C11 22.085 10.886 21.892 10.703 21.791z" fill="#37474f"/>
</svg>
