<?xml version="1.0" encoding="UTF-8"?>
<svg width="100" height="100" viewBox="0 0 80 80" xmlns="http://www.w3.org/2000/svg">
<path d="M40,61.5C18.22,61.5,0.5,51.855,0.5,40S18.22,18.5,40,18.5S79.5,28.145,79.5,40S61.78,61.5,40,61.5z" fill="#dcd5f2"/>
<path d="m40 19c21.505 0 39 9.421 39 21s-17.495 21-39 21-39-9.421-39-21 17.495-21 39-21m0-1c-22.091 0-40 9.85-40 22s17.909 22 40 22 40-9.85 40-22-17.909-22-40-22z" fill="#8b75a1"/>
<path d="m25.112 34c1.725 0 3.214 0.622 4.084 1.706 0.749 0.934 0.981 2.171 0.668 3.577-0.841 3.791-2.469 4.717-8.294 4.717h-4.14l1.75-10h5.932m0-2h-7.612l-3.5 20h2l1.056-6h4.515c5.863 0 9.053-0.905 10.246-6.284 1.025-4.62-2.381-7.716-6.705-7.716zm36 2c1.725 0 3.214 0.622 4.084 1.706 0.749 0.934 0.981 2.171 0.668 3.577-0.841 3.791-2.469 4.717-8.294 4.717h-4.14l1.75-10h5.932m0-2h-7.612l-3.5 20h2l1.056-6h4.515c5.863 0 9.053-0.905 10.246-6.284 1.025-4.62-2.381-7.716-6.705-7.716z" fill="#36404d"/>
<path d="m49.072 33.212c-0.879-0.864-2.428-1.212-4.738-1.212h-5.538l1.204-6h-2.1l-3.9 20h1.99l2.388-12h5.957c2.338 0 3.094 0.4 3.335 0.637 0.343 0.338 0.424 1.226 0.217 2.363l-1.767 9h2.106l1.626-8.63c0.347-1.908 0.084-3.308-0.78-4.158z" fill="#36404d"/>
</svg>
