<?xml version="1.0" encoding="UTF-8"?>
<svg width="100" height="100" viewBox="0 0 48 48" xmlns="http://www.w3.org/2000/svg">
<linearGradient id="a" x1="10.608" x2="35.821" y1="4.776" y2="40.968" gradientUnits="userSpaceOnUse">
<stop stop-color="#0d61a9" offset="0"/>
<stop stop-color="#16528c" offset="1"/>
</linearGradient>
<path d="M24,4C12.97,4,4,12.976,4,24s8.97,20,19.999,20C35.03,44,44,35.024,44,24S35.03,4,24,4z" fill="url(#a)"/>
<path d="m24 43.001c-10.479 0-19.005-8.524-19.005-19.001 0-10.476 8.525-18.999 19.004-18.999 10.48 0 19.006 8.523 19.006 18.999 0 10.477-8.526 19.001-19.005 19.001zm-3.222-4.35c1.052 0.232 2.134 0.349 3.223 0.349 1.344 0 2.682-0.181 3.984-0.539l-3.676-10.072-3.531 10.262zm-11.362-18.163c-0.276 1.144-0.415 2.32-0.415 3.512 0 4.864 2.259 9.284 6.111 12.093l-5.696-15.605zm29.337 0.801c-0.211 0.895-0.507 1.818-0.893 2.783l-3.829 11.082c3.138-2.832 4.969-6.889 4.969-11.154 0-0.912-0.083-1.818-0.247-2.711zm-18.728 9.384 2.442-7.328-2.265-6.308c-0.613-0.051-1.086-0.112-1.086-0.112-0.854-0.053-1.5-0.783-1.47-1.694 0.03-0.921 0.735-1.616 1.641-1.616l0.222 0.014c1.825 0.125 3.188 0.188 4.051 0.188 1.606 0 4.162-0.195 4.188-0.197h3e-3c1.006 0 1.715 0.637 1.77 1.549 0.045 0.76-0.455 1.633-1.473 1.757-0.078 9e-3 -0.294 0.034-0.596 0.062l4.483 13.401 0.693-2.308c0.786-2.016 1.177-3.647 1.177-4.888 0-1.386-0.644-2.439-1.211-3.368-0.117-0.191-0.228-0.373-0.327-0.546l-0.197-0.318c-0.778-1.26-1.511-2.449-1.511-3.931 0-1.329 0.831-2.61 2.067-3.307-2.505-1.762-5.535-2.723-8.625-2.723-4.183 0-8.113 1.719-10.948 4.751 1.342-0.057 2.676-0.159 2.693-0.16l0.134-5e-3c0.882 0 1.588 0.668 1.641 1.554 0.045 0.76-0.457 1.634-1.478 1.757-0.068 8e-3 -0.285 0.033-0.592 0.062l4.574 13.714z" opacity=".05"/>
<path d="m24 42.501c-10.204 0-18.505-8.299-18.505-18.501 0-10.2 8.301-18.499 18.504-18.499 10.204 0 18.506 8.299 18.506 18.499 0 10.202-8.301 18.501-18.505 18.501zm-3.874-3.492c1.258 0.326 2.559 0.491 3.875 0.491 1.571 0 3.128-0.238 4.637-0.709l-4.343-11.898-4.169 12.116zm-10.761-20.117c-0.574 1.64-0.864 3.353-0.864 5.108 0 5.553 2.88 10.554 7.599 13.339l-6.735-18.447zm29.257-0.042c-0.106 1.604-0.502 3.227-1.225 5.036l-4.404 12.743c4.046-2.89 6.507-7.608 6.507-12.629 0-1.755-0.3-3.5-0.878-5.15zm-18.596 13.403 2.971-8.915-2.433-6.775c-0.747-0.052-1.384-0.134-1.384-0.134-0.606-0.039-1.055-0.537-1.034-1.182 0.021-0.646 0.512-1.132 1.141-1.132 0.119 5e-3 2.741 0.202 4.272 0.202 1.636 0 4.2-0.196 4.226-0.198h8e-3c0.714 0 1.191 0.455 1.229 1.081 0.033 0.545-0.312 1.143-1.034 1.23-0.028 3e-3 -0.539 0.064-1.211 0.114l5.185 15.498 1.146-3.816c0.8-2.048 1.198-3.728 1.198-5.032 0-1.527-0.712-2.693-1.285-3.629-0.114-0.187-0.223-0.364-0.32-0.534l-0.205-0.332c-0.739-1.197-1.437-2.328-1.437-3.669 0-1.431 1.13-2.757 2.557-3.191-2.723-2.161-6.096-3.339-9.615-3.339-4.695 0-9.141 2.146-12.074 5.785 1.621-0.024 3.834-0.194 3.858-0.196l0.094-3e-3c0.624 0 1.104 0.456 1.142 1.083 0.033 0.546-0.313 1.144-1.039 1.231-0.027 3e-3 -0.535 0.064-1.208 0.114l5.252 15.739z" opacity=".07"/>
<path d="m23.999 6.001c-9.93 0-18.004 8.075-18.004 17.999s8.077 18.001 18.005 18.001c9.929 0 18.005-8.077 18.005-18.001s-8.076-17.999-18.006-17.999zm-15.998 17.999c0-2.324 0.497-4.521 1.384-6.512l7.634 20.912c-5.338-2.594-9.018-8.064-9.018-14.4zm16 16c-1.57 0-3.084-0.226-4.52-0.652l4.8-13.952 4.918 13.477c0.033 0.077 0.078 0.149 0.118 0.22-1.667 0.583-3.455 0.907-5.316 0.907zm2.094-23.915c0.962-0.047 1.832-0.152 1.832-0.152 0.861-0.104 0.757-1.373-0.104-1.316 0 0-2.589 0.2-4.264 0.2-1.569 0-4.217-0.2-4.217-0.2-0.86-0.059-0.96 1.26-0.098 1.316 0 0 0.818 0.106 1.679 0.152l2.603 7.248-3.5 10.501-5.931-17.778c0.964-0.047 1.828-0.152 1.828-0.152 0.866-0.104 0.761-1.373-0.099-1.316 0 0-2.595 0.2-4.264 0.2-0.304 0-0.383 0.035-0.611-0.039 2.899-4.083 7.663-6.749 13.052-6.749 4.167 0 7.96 1.584 10.804 4.198-0.071-2e-3 -0.135-8e-3 -0.206-8e-3 -1.57 0-3.041 1.375-3.041 2.84 0 1.315 0.763 2.423 1.576 3.752 0.607 1.062 1.67 2.435 1.67 4.412 0 1.375-0.405 3.095-1.219 5.175l-1.599 5.326-5.891-17.61zm5.952 21.75 4.885-14.135c0.913-2.286 1.219-4.109 1.219-5.737 0-0.586-0.037-1.135-0.108-1.645 1.246 2.286 1.957 4.901 1.957 7.682 0 5.902-3.195 11.063-7.953 13.835z" fill="#fff"/>
</svg>
