<?xml version="1.0" standalone="no"?>
<!DOCTYPE svg PUBLIC "-//W3C//DTD SVG 20010904//EN"
 "http://www.w3.org/TR/2001/REC-SVG-20010904/DTD/svg10.dtd">
<svg version="1.0" xmlns="http://www.w3.org/2000/svg"
 width="500.000000pt" height="500.000000pt" viewBox="0 0 500.000000 500.000000"
 preserveAspectRatio="xMidYMid meet">
<metadata>
Created by potrace 1.14, written by Peter Selinger 2001-2017
</metadata>
<g transform="translate(0.000000,500.000000) scale(0.100000,-0.100000)"
fill="#000000" stroke="none">
<path d="M2992 4204 c-95 -113 -111 -138 -101 -150 7 -8 18 -14 24 -12 7 2 62
62 123 133 102 121 109 131 95 148 -9 9 -19 17 -22 17 -3 -1 -57 -62 -119
-136z"/>
<path d="M2401 4035 c-162 -30 -276 -89 -382 -194 -76 -77 -111 -129 -141
-211 -89 -245 -19 -491 183 -645 98 -74 242 -136 494 -215 340 -106 452 -159
556 -263 142 -142 169 -351 73 -553 -43 -92 -107 -162 -200 -220 -142 -89
-279 -120 -489 -111 -102 4 -147 11 -210 31 -216 69 -375 236 -408 429 l-11
67 -43 0 -43 0 6 -47 c20 -160 113 -320 239 -413 117 -86 241 -131 413 -150
198 -22 359 3 522 82 90 43 115 62 185 132 129 132 178 254 178 446 0 165 -50
281 -168 388 -107 98 -235 160 -510 246 -270 86 -322 105 -419 154 -121 62
-204 141 -254 240 -37 76 -37 77 -37 202 l0 125 39 80 c79 162 240 278 441
316 77 15 255 12 332 -6 229 -53 401 -229 447 -457 9 -42 16 -80 16 -83 0 -3
18 -5 40 -5 39 0 40 1 40 33 0 57 -38 184 -77 260 -54 106 -172 220 -283 274
-47 23 -114 49 -150 58 -93 23 -288 28 -379 10z"/>
<path d="M2440 3569 c-369 -403 -355 -386 -340 -404 7 -8 16 -15 20 -15 5 0
153 158 331 351 256 280 320 355 312 367 -5 9 -14 17 -19 19 -5 2 -142 -142
-304 -318z"/>
<path d="M1648 2684 c-167 -185 -304 -340 -306 -344 -2 -5 6 -13 17 -19 18
-10 48 20 302 301 155 172 294 325 307 340 21 23 23 30 12 43 -7 8 -16 15 -21
15 -5 0 -145 -151 -311 -336z"/>
</g>
</svg>
